<svg xmlns="http://www.w3.org/2000/svg" xmlns:xlink="http://www.w3.org/1999/xlink" width="2839" height="2839" overflow="hidden" xml:space="preserve"><defs><clipPath id="clip0"><rect width="2839" height="2839" x="1179" y="1189"/></clipPath></defs><g clip-path="url(#clip0)" transform="translate(-1179 -1189)"><path fill="#FCCA73" fill-rule="evenodd" d="M3685.34 1480.11C3679.98 1480.11 3674.44 1480.43 3668.75 1481.17L3668.75 1481.17 3668.75 1481.17 3499.55 1499.85C3488.97 1501.02 3479.05 1503.48 3469.94 1506.89L3469.94 1506.89 1356.8 1780.72C1195.08 1801.42 1203.13 2100 1362.66 2100 1368.02 2100 1373.56 2099.68 1379.25 2098.93 2149.85 1997.34 2920.52 1898.31 3691.2 1799.39 3852.92 1778.69 3844.87 1480.11 3685.34 1480.11Z"/><path fill="#FCCA73" fill-rule="evenodd" d="M3681.9 1676C3646.93 1676 3612.69 1691.24 3586.66 1724.8L3586.66 1724.8C3451.16 1752.4 3305.25 1749.1 3170.89 1764.87 2969.11 1786.29 2767.32 1807.6 2567.49 1831.68 2239.56 1866.1 1911.55 1900.62 1583.62 1933.33L1583.62 1933.33C1566.06 1924.17 1547.35 1918.84 1528.81 1918.84 1511.81 1918.84 1494.97 1923.21 1479.03 1933.12 1474.4 1937.17 1468.54 1941.22 1463.33 1945.27L1463.33 1945.27C1450.24 1946.55 1437.15 1947.82 1423.97 1949.21 1267 1965.19 1340.44 2226.89 1468.87 2226.89 1481.23 2226.89 1492.61 2226.79 1503.35 2226.25L1503.35 2226.25C1503.43 2226.47 1503.43 2226.68 1503.51 2226.89 1929.53 2184.16 2353.51 2138.77 2779.52 2093.38 2981.31 2071.96 3183.09 2047.99 3384.96 2026.57 3513.3 2013.25 3735.5 2053.31 3829.27 1911.81 3863.92 1858.32 3837.4 1780.96 3802.76 1740.89 3800.72 1738.23 3796.66 1732.79 3792.59 1730.13 3761.93 1695.61 3721.43 1676 3681.9 1676Z"/><path fill="#FCCA73" fill-rule="evenodd" d="M3813.41 1890C3803.08 1890 3792.99 1890.85 3783.31 1892.56 3776.16 1893.63 3769 1894.69 3761.84 1895.76L3761.84 1895.76C3761.51 1895.55 3761.19 1895.44 3760.86 1895.23 3759.15 1895.76 3757.45 1896.19 3755.74 1896.72L3755.74 1896.72C2955.46 2015.35 2153.32 2120.96 1351.09 2213.45 1232.08 2226.47 1472.05 2317.89 1528.26 2317.89 1529.81 2317.89 1531.27 2317.89 1532.49 2317.68 2297.79 2229.46 3061.13 2129.28 3824.47 2017.27L3824.47 2017.27C3833.67 2018.34 3842.78 2018.87 3851.89 2018.87 3868.16 2018.87 3884.18 2017.06 3899.47 2012.9 3928.03 2007.56 3956.58 1999.56 3985.13 1994.23 4027.92 1983.45 3991.23 1948.78 3970.9 1938.01 3924.85 1911.23 3866.04 1890 3813.41 1890Z"/><path fill="#FCCA73" fill-rule="evenodd" d="M3526.33 2050C3522.1 2050 3517.95 2050.32 3513.89 2050.96 2771.73 2179.17 2025.42 2246 1277.08 2253.99 1289.29 2253.99 1434.02 2371.44 1483 2384.87 1503.42 2390.2 1523.76 2395.53 1546.22 2403.52 1556.31 2406.51 1564.44 2407.89 1570.54 2407.89 1584.29 2407.89 1587.47 2400.86 1579.17 2389.56L1579.17 2389.56C2306.92 2381.04 3032.65 2311.87 3754.54 2187.17 3777 2184.5 3681.16 2117.68 3674.98 2112.35 3635.6 2090.29 3575.47 2050 3526.33 2050Z"/><path fill="#FCCA73" fill-rule="evenodd" d="M3717.76 2101.11C3713.85 2101.11 3709.79 2101.21 3705.56 2101.53 3694 2102.49 3682.45 2103.35 3670.9 2104.2L3670.9 2104.2C3670.9 2104.2 3670.9 2104.2 3670.9 2104.2L3670.9 2104.2C3670.9 2104.2 3670.9 2104.2 3670.9 2104.2L3670.9 2104.2C2958.49 2159.55 2244.21 2217.46 1531.8 2275.26 1416.59 2283.79 1338.88 2476.83 1401.29 2547.22L1401.29 2547.22C1376.07 2555.11 1351.01 2563.32 1325.87 2571.96 1186.49 2618.24 1169.08 2870.89 1298.2 2870.89 1310.81 2870.89 1324.73 2868.55 1340.19 2863.32 2108.9 2598.73 2920.49 2692.26 3685.22 2395.56 3794.57 2353.86 3872.92 2101.11 3717.76 2101.11Z"/><path fill="#FCCA73" fill-rule="evenodd" d="M3595.13 2470.11C3592.52 2470.11 3589.92 2470.32 3587.32 2470.85 2855.26 2609.71 2121.25 2655.11 1381.06 2657.78 1277.08 2657.78 1370.81 2989 1462.58 2989 2146.71 2986.55 2825.64 2947.54 3502.54 2829.89L3502.54 2829.89C3521.5 2856.75 3542.73 2874.12 3563.72 2874.12 3564.13 2874.12 3564.54 2874.12 3564.86 2874.12 3632.14 2871.45 3664.77 2850.14 3701.46 2777.99 3741 2702.96 3675.26 2470.11 3595.13 2470.11Z"/><path fill="#FCCA73" fill-rule="evenodd" d="M3560.19 2783C3559.54 2783 3558.97 2783.11 3558.41 2783.11L1606.53 2902.86 1606.53 2902.86C1588.8 2885.99 1571.48 2875.54 1556.68 2875.54 1553.91 2875.54 1551.15 2875.96 1548.54 2876.71 1505.76 2887.49 1462.9 2900.83 1422.16 2914.17 1373.28 2926.66 1428.42 3048.33 1489.91 3126.57L1489.91 3126.57C1487.47 3126.57 1484.94 3126.57 1482.34 3126.57 1456.07 3126.57 1427.44 3127.63 1416.63 3136.6L1416.63 3136.6C1403.94 3126.57 1390.92 3119.09 1379.94 3119.09 1373.36 3119.09 1367.58 3121.76 1363.03 3128.17 1360.99 3133.5 1356.93 3136.17 1352.86 3141.61 1310.08 3203.09 1426.22 3347.5 1456.8 3379.62 1496.09 3417.09 1542.77 3430 1592.46 3430 1684.69 3430 1787.09 3385.49 1870.62 3371.62 2078.5 3336.82 2288.5 3315.48 2498.41 3302.03 2916.29 3275.35 3330.11 3259.23 3723.51 3056.02 3778 3029.55 3616.88 2783 3560.19 2783Z"/><path fill="#FCCA73" fill-rule="evenodd" d="M3495.9 3061.11C2835.35 3087.83 2174.72 3111.98 1516.2 3136.03 1439 3138.71 1533.77 3462.89 1603 3462.89 1603.32 3462.89 1603.57 3462.89 1603.89 3462.89 2223.69 3437.77 2843.48 3415.01 3461.57 3392.35L3461.57 3392.35C3475.15 3408.92 3489.31 3418.86 3503.05 3418.86 3506.15 3418.86 3509.16 3418.43 3512.17 3417.36L3597.83 3385.19C3659 3363.81 3557.07 3061.11 3495.9 3061.11Z"/><path fill="#FCCA73" fill-rule="evenodd" d="M3609.8 3273C3607.69 3273 3605.57 3273.11 3603.46 3273.32 2915.34 3342.5 2225.35 3400.18 1535.36 3448.68L1535.36 3448.68C1506.16 3427.89 1471.66 3414.57 1439.04 3414.57 1420.65 3414.57 1402.91 3418.83 1387.05 3428.21 1358.49 3444.31 1331.97 3460.3 1303.42 3476.29 1173 3555.18 1311.14 3716.89 1401.12 3716.89 1402.59 3716.89 1403.97 3716.89 1405.44 3716.79 2087.37 3670.41 2769.3 3615.09 3449.69 3548.78L3449.69 3548.78C3479.88 3570.85 3515.92 3585.13 3549.68 3585.13 3567.25 3585.13 3584.18 3581.19 3599.39 3572.55 3634.05 3553.79 3670.74 3532.47 3705.4 3511.04 3834.92 3437.91 3701.57 3273 3609.8 3273Z"/><path fill="#FCCA73" fill-rule="evenodd" d="M3329.96 3322C3325.08 3322 3319.87 3322.64 3314.26 3324.03 2857.38 3412.22 2396.43 3460.31 1933.45 3460.31 1868.18 3460.31 1806.98 3500.41 1764.18 3567.27 1741.72 3599.27 1709.08 3700.89 1774.35 3700.89 1787.7 3700.89 1800.96 3701 1814.31 3701 2280.14 3701 2744.1 3655.46 3204.15 3564.5 3267.38 3553.84 3332.65 3500.41 3365.28 3428.21 3390.92 3372.97 3373.75 3322 3329.96 3322Z"/><path fill="#82B12F" fill-rule="evenodd" d="M2301.53 3734.95 2194.85 3841.55C2006.12 4030.15 1700.11 4030.15 1511.38 3841.55L1511.38 3841.55C1474.87 3805.07 1474.87 3745.93 1511.38 3709.45L1893.7 3327.4C2006.32 3214.86 2188.91 3214.86 2301.53 3327.4L2301.53 3327.4C2414.16 3439.94 2414.16 3622.41 2301.53 3734.95Z"/><path fill="#000" fill-opacity=".102" fill-rule="evenodd" d="M2301.56 3327.43 2301.56 3327.43C2188.97 3214.86 2006.43 3214.86 1893.85 3327.43L1752 3469.25C1808.15 3686.29 1984.08 3813.33 2200.61 3836L2301.56 3735.07C2414.15 3622.5 2414.15 3439.99 2301.56 3327.43Z"/><path fill="#688E26" fill-rule="evenodd" d="M2891.21 3447 3042 3447C3308.75 3447 3525 3230.54 3525 2963.52L3525 2963.52C3525 2911.87 3483.17 2870 3431.58 2870L2891.21 2870C2732.04 2870 2603 2999.17 2603 3158.5L2603 3158.5C2603.01 3317.83 2732.04 3447 2891.21 3447Z"/><path fill="#FAA613" fill-rule="evenodd" d="M3226.36 2963.52 3226.36 2963.52C3226.36 2911.87 3184.52 2870 3132.92 2870L3431.56 2870C3483.17 2870 3525 2911.87 3525 2963.52L3525 2963.52C3525 3230.54 3308.72 3447 3041.93 3447L2891.12 3447C2869.07 3447 2847.63 3444.44 2827 3439.74 3053.89 3400.06 3226.36 3201.96 3226.36 2963.52Z"/><path fill="#C00" fill-rule="evenodd" d="M3373.94 2963.52 3373.94 2963.52C3373.94 2911.87 3332.1 2870 3280.5 2870L3431.56 2870C3483.16 2870 3525 2911.87 3525 2963.52L3525 2963.52C3525 3230.54 3308.7 3447 3041.89 3447L2891.08 3447C2891.06 3447 2891.02 3447 2891 3447 3157.73 3446.91 3373.94 3230.48 3373.94 2963.52Z"/><path fill="#82B12F" fill-rule="evenodd" d="M2913 3235.33C2913 2896.05 2671.69 2621 2374 2621 2076.31 2621 1835 2896.05 1835 3235.33 1835 3574.61 2076.31 3761 2374 3761 2671.68 3761 2913 3574.61 2913 3235.33Z"/><path fill="#000" fill-opacity=".102" fill-rule="evenodd" d="M2374.15 2621C2212.09 2621 2066.76 2702.72 1968 2832.03 2088.31 2916.44 2234.76 2966 2392.78 2966L2569.15 2966C2661.65 2966 2743.83 2921.9 2796 2853.57 2697.3 2711.87 2545.03 2621 2374.15 2621Z"/><path fill="#D78C05" fill-rule="evenodd" d="M3867 2145 2577 2145 2577 2282.79C2577 2529.22 2776.75 2729 3023.16 2729L3539.94 2729C3720.57 2729 3867 2582.55 3867 2401.9L3867 2145Z"/><path fill="#000" fill-opacity=".149" fill-rule="evenodd" d="M3851.93 2145 2886 2145 2886 2503.98C3047.4 2548.3 3483.23 2622.12 3758.7 2645 3825.18 2585.13 3867 2498.4 3867 2401.86L3867 2177.41C3862.13 2166.52 3857.08 2155.73 3851.93 2145Z"/><path fill="#FAA613" fill-rule="evenodd" d="M2886 1305C3461.16 1400.48 3909.84 1870.01 3973.56 2455.2 3978.38 2499.48 3943.19 2538 3898.65 2538 3663.73 2538 3078.9 2442.96 2886 2390.03L2886 1305Z"/><path fill="#82B12F" fill-rule="evenodd" d="M2669.51 1287 2394.29 1287C1958.38 1287 1605 1640.47 1605 2076.5L1605 2076.5C1605 2512.53 1958.38 2866 2394.29 2866L2582.07 2866C2749.93 2866 2886 2729.89 2886 2561.99L2886 1304.88C2815.57 1293.19 2743.27 1287 2669.51 1287Z"/><path fill="#E2F0C8" fill-rule="evenodd" d="M2042 1893 2042 1893C2042 1738.91 2167.03 1614 2321.27 1614L2321.27 1614C2392.63 1614 2462.5 1634.32 2522.72 1672.58L2522.72 1672.58C2612.17 1729.41 2724.68 1735.98 2820.15 1689.94L2886 1658.19 2886 2172 2321.27 2172C2167.03 2172 2042 2047.09 2042 1893Z"/><path fill="#688E26" fill-rule="evenodd" d="M1856.79 3447 1706 3447C1439.24 3447 1223 3230.54 1223 2963.52L1223 2963.52C1223 2911.87 1264.82 2870 1316.42 2870L1856.79 2870C2015.97 2870 2145 2999.17 2145 3158.5L2145 3158.5C2144.99 3317.83 2015.96 3447 1856.79 3447Z"/><path fill="#FAA613" fill-rule="evenodd" d="M1521.64 2963.52 1521.64 2963.52C1521.64 2911.87 1563.47 2870 1615.08 2870L1316.44 2870C1264.83 2870 1223 2911.87 1223 2963.52L1223 2963.52C1223 3230.54 1439.28 3447 1706.07 3447L1856.88 3447C1878.93 3447 1900.37 3444.44 1921 3439.74 1694.11 3400.06 1521.64 3201.96 1521.64 2963.52Z"/><path fill="#C00" fill-rule="evenodd" d="M1374.06 2963.52 1374.06 2963.52C1374.06 2911.87 1415.9 2870 1467.5 2870L1316.44 2870C1264.84 2870 1223 2911.87 1223 2963.52L1223 2963.52C1223 3230.54 1439.29 3447 1706.1 3447L1856.92 3447C1856.94 3447 1856.97 3447 1857 3447 1590.26 3446.91 1374.06 3230.48 1374.06 2963.52Z"/><path fill="#FAA613" fill-rule="evenodd" d="M2243.5 3941C2196.28 3941 2158 3902.72 2158 3855.51L2158 3688.49C2158 3641.27 2196.28 3603 2243.5 3603 2290.73 3603 2329 3641.28 2329 3688.49L2329 3855.51C2329 3902.72 2290.72 3941 2243.5 3941Z"/><path fill="#FAA613" fill-rule="evenodd" d="M2584.5 3941C2537.28 3941 2499 3902.72 2499 3855.51L2499 3688.49C2499 3641.27 2537.28 3603 2584.5 3603 2631.72 3603 2670 3641.28 2670 3688.49L2670 3855.51C2669.99 3902.72 2631.71 3941 2584.5 3941Z"/><path fill-rule="evenodd" d="M2320.96 1795.23C2255.61 1795.23 2202.44 1848.41 2202.44 1913.77 2202.44 1938.17 2222.22 1957.95 2246.62 1957.95 2271.02 1957.95 2290.8 1938.17 2290.8 1913.77 2290.8 1897.13 2304.33 1883.6 2320.97 1883.6 2337.6 1883.6 2351.13 1897.13 2351.13 1913.77 2351.13 1938.17 2370.91 1957.95 2395.31 1957.95 2419.7 1957.95 2439.48 1938.17 2439.48 1913.77 2439.47 1848.41 2386.31 1795.23 2320.96 1795.23ZM4017.31 2451.04C3951.87 1849.72 3489.51 1360.55 2892.92 1261.48 2819.1 1249.22 2743.83 1243 2669.23 1243L2394.06 1243C1934.56 1243 1560.72 1616.91 1560.72 2076.49 1560.72 2373.56 1716.95 2634.78 1951.51 2782.41 1938.45 2797.93 1926.11 2814.18 1914.45 2831.04 1895.83 2827.79 1876.7 2825.99 1857.16 2825.99L1316.63 2825.99C1240.74 2825.99 1179 2887.74 1179 2963.65 1179 3242.04 1395.78 3470.72 1669.37 3489.76L1480.29 3678.87C1426.64 3732.54 1426.64 3819.87 1480.29 3873.55 1573.58 3966.85 1697.48 4021.51 1829.19 4027.45 1837.22 4027.82 1845.22 4028 1853.22 4028 1957.6 4027.99 2058.86 3997.18 2145.04 3939.77 2168.83 3967.57 2204.13 3985.24 2243.5 3985.24 2314.96 3985.24 2373.1 3927.09 2373.1 3855.61L2373.1 3805.84C2373.48 3805.84 2373.85 3805.86 2374.22 3805.86 2401.46 3805.86 2428.44 3804.33 2454.94 3801.37L2454.94 3855.6C2454.94 3927.08 2513.07 3985.24 2584.54 3985.24 2656.01 3985.24 2714.16 3927.09 2714.16 3855.6L2714.16 3712.8C2800.33 3657.93 2865.15 3582.49 2906.07 3491.06L3042.13 3491.06C3332.9 3491.06 3569.46 3254.46 3569.46 2963.63 3569.46 2887.73 3507.72 2825.98 3431.83 2825.98L2891.3 2825.98C2872.1 2825.98 2852.93 2827.68 2834.01 2830.99 2829.98 2825.17 2825.89 2819.41 2821.68 2813.74 2841.71 2794.65 2859.45 2773.23 2874.49 2749.89 2922.56 2765.26 2972.48 2773.16 3023.45 2773.16L3540.23 2773.16C3675.3 2773.16 3799.51 2699.14 3864.6 2582.28 3876.54 2582.66 3887.87 2582.85 3898.47 2582.85 3932.44 2582.85 3964.92 2568.34 3987.61 2543.04 4010.12 2517.96 4020.94 2484.42 4017.31 2451.04ZM1267.35 2963.64C1267.35 2936.46 1289.46 2914.35 1316.63 2914.35L1857.17 2914.35C1991.78 2914.35 2101.29 3023.89 2101.29 3158.52 2101.29 3293.17 1991.78 3402.7 1857.17 3402.7L1706.33 3402.7C1464.28 3402.7 1267.35 3205.74 1267.35 2963.64ZM2113.91 3853.76C2033.22 3913.51 1934.44 3943.8 1833.18 3939.17 1723.57 3934.22 1620.43 3888.72 1542.77 3811.05 1523.56 3791.83 1523.56 3760.57 1542.77 3741.35L1793.01 3491.07 1842.63 3491.07C1896.13 3609.74 1990.93 3701.94 2113.9 3754.81L2113.9 3853.77 2113.91 3853.77ZM2284.77 3855.61C2284.77 3878.36 2266.26 3896.87 2243.51 3896.87 2220.77 3896.87 2202.26 3878.36 2202.26 3855.61L2202.26 3688.69C2202.26 3665.94 2220.77 3647.43 2243.51 3647.43 2266.26 3647.43 2284.77 3665.94 2284.77 3688.69L2284.77 3855.61ZM2625.82 3855.61C2625.82 3878.36 2607.31 3896.87 2584.56 3896.87 2561.81 3896.87 2543.31 3878.36 2543.31 3855.61L2543.31 3688.69C2543.31 3665.94 2561.81 3647.43 2584.56 3647.43 2607.31 3647.43 2625.82 3665.94 2625.82 3688.69L2625.82 3855.61ZM2891.3 2914.35 3431.84 2914.35C3459.01 2914.35 3481.12 2936.46 3481.12 2963.64 3481.12 3205.74 3284.19 3402.7 3042.14 3402.7L2936.88 3402.7C2950.31 3350.77 2957.25 3295.02 2957.25 3236 2957.25 3121.9 2931.53 3011.86 2883.31 2914.62 2885.98 2914.54 2888.64 2914.35 2891.3 2914.35ZM2868.89 3236.01C2868.89 3400.25 2807.21 3534.29 2693.99 3619.37 2670.98 3583.16 2630.54 3559.07 2584.56 3559.07 2513.1 3559.07 2454.95 3617.22 2454.95 3688.7L2454.95 3712.39C2428.29 3715.82 2400.94 3717.58 2373.12 3717.51L2373.12 3688.7C2373.12 3617.22 2314.98 3559.07 2243.51 3559.07 2182.35 3559.07 2130.97 3601.68 2117.43 3658.78 2038.46 3618.03 1977 3557.89 1936.32 3481.48 2081.55 3445.86 2189.65 3314.62 2189.65 3158.54 2189.65 3027.41 2113.35 2913.79 2002.84 2859.69 2011.64 2848.16 2020.81 2837 2030.39 2826.32 2140.36 2879.88 2263.76 2909.98 2394.08 2909.98L2581.82 2909.98C2642.98 2909.98 2700.47 2894.07 2750.46 2866.25 2827 2969.4 2868.89 3099.16 2868.89 3236.01ZM2841.52 2561.86C2841.52 2705.09 2725.02 2821.61 2581.81 2821.61L2394.06 2821.61C1983.27 2821.61 1649.08 2487.35 1649.08 2076.49 1649.08 1665.63 1983.27 1331.37 2394.06 1331.37L2669.24 1331.37C2726.6 1331.37 2784.4 1335.3 2841.52 1343.08L2841.52 2561.86ZM3540.23 2684.8 3023.46 2684.8C2985.72 2684.8 2948.69 2679.52 2912.85 2669.24 2923.85 2635.39 2929.88 2599.33 2929.88 2561.86L2929.88 2447.25C3124.09 2492.61 3511.54 2555.89 3762.84 2576.25 3709.89 2643.67 3628.08 2684.8 3540.23 2684.8ZM3921.85 2484.04C3918.35 2487.94 3910.67 2494.48 3898.47 2494.48 3678.51 2494.48 3147.15 2409.92 2929.87 2356.41L2929.87 1358.29C3462.51 1469.67 3870.2 1915.91 3929.48 2460.61 3930.74 2472.19 3925.24 2480.26 3921.85 2484.04Z"/><path fill="#C00" fill-rule="evenodd" d="M2322.54 1561.18C2314.24 1566.59 2304.88 1570.51 2294.85 1572.62 2227.41 1586.77 2166.48 1586.19 2108.59 1570.82 2103.53 1569.5 2099.17 1566.31 2096.31 1561.92L2015.04 1437.12C2012.18 1432.72 2011.05 1427.43 2011.86 1422.28 2021.25 1363.1 2045.36 1307.14 2085.55 1251.21 2101.11 1229.52 2126.18 1216.93 2152.56 1217.54 2177.74 1218.12 2199.96 1230.39 2213.5 1251.18L2346.6 1455.58C2360.14 1476.38 2362.38 1501.67 2352.73 1524.93 2346.48 1539.95 2335.88 1552.5 2322.54 1561.18Z"/><path fill="#C00000" fill-rule="evenodd" d="M1843.47 1876.16C1830.72 1884.47 1815.53 1888.68 1799.73 1887.86 1775.23 1886.61 1753.3 1873.8 1739.59 1852.74L1604.79 1645.74C1591.08 1624.68 1588.23 1599.45 1597 1576.53 1606.18 1552.54 1626.71 1535.39 1652.01 1530.59 1717.21 1518.28 1776.46 1520.44 1833.17 1537.27 1838.15 1538.76 1842.49 1542.04 1845.37 1546.46L1927.67 1672.84C1930.57 1677.29 1931.8 1682.59 1931.14 1687.71 1923.6 1746.38 1901.63 1801.47 1863.98 1856.1 1858.4 1864.23 1851.4 1871 1843.47 1876.16Z"/><path fill="#C00" fill-rule="evenodd" d="M2076.24 1648.28 2019.3 1685.36C1984.77 1707.85 1938.4 1698.05 1915.91 1663.52L1849.18 1561.03C1826.69 1526.5 1836.48 1480.13 1871.02 1457.65L1927.95 1420.57C1962.49 1398.08 2008.85 1407.87 2031.34 1442.41L2098.08 1544.89C2120.57 1579.43 2110.77 1625.79 2076.24 1648.28Z"/><path fill-rule="evenodd" d="M2094.33 1665.11 2027.35 1708.73C1986.71 1735.2 1932.16 1723.68 1905.69 1683.03L1827.18 1562.46C1800.71 1521.82 1812.23 1467.27 1852.88 1440.8L1919.86 1397.19C1960.51 1370.72 2015.05 1382.24 2041.52 1422.89L2120.03 1543.45C2146.5 1584.1 2134.98 1638.65 2094.33 1665.11ZM1879.05 1480.99C1860.59 1493.01 1855.35 1517.83 1867.37 1536.29L1945.88 1656.86C1957.9 1675.32 1982.72 1680.56 2001.18 1668.54L2068.16 1624.92C2086.62 1612.9 2091.87 1588.08 2079.84 1569.62L2001.33 1449.06C1989.31 1430.6 1964.49 1425.35 1946.03 1437.38Z"/><path fill-rule="evenodd" d="M2343.33 1579.28C2333.9 1585.42 2323.28 1589.85 2311.91 1592.26 2235.45 1608.32 2166.31 1607.67 2100.63 1590.24 2087.83 1586.86 2080.21 1573.7 2083.6 1560.92 2086.95 1548.13 2100.11 1540.52 2112.92 1543.89 2171.21 1559.35 2233.06 1559.82 2302.07 1545.33 2316.23 1542.4 2327.91 1532.81 2333.27 1519.82 2338.06 1508.27 2337.04 1495.85 2330.44 1485.72L2179.44 1253.83C2172.84 1243.7 2161.9 1237.74 2149.39 1237.46 2135.32 1237.12 2121.84 1243.95 2113.45 1255.67 2072.29 1312.88 2047.73 1369.66 2038.26 1429.24 2036.17 1442.32 2023.91 1451.22 2010.83 1449.17 1997.74 1447.12 1988.81 1434.81 1990.9 1421.74 2001.53 1354.61 2028.9 1291.12 2074.51 1227.69 2092.16 1203.07 2120.61 1188.81 2150.51 1189.49 2179.07 1190.16 2204.27 1204.08 2219.62 1227.66L2370.6 1459.5C2385.95 1483.07 2388.49 1511.76 2377.55 1538.14 2370.5 1555.21 2358.47 1569.42 2343.33 1579.28Z"/><path fill-rule="evenodd" d="M1848.15 1901.74C1833.01 1911.59 1815.14 1916.86 1796.7 1916.43 1768.15 1915.75 1742.94 1901.83 1727.59 1878.26L1576.6 1646.39C1561.25 1622.82 1558.71 1594.14 1569.64 1567.75 1581.12 1540.13 1605.61 1519.91 1635.32 1513.69 1711.78 1497.63 1780.91 1498.27 1846.6 1515.71 1859.38 1519.1 1867.02 1532.25 1863.6 1545.04 1860.21 1557.82 1847.05 1565.44 1834.29 1562.07 1775.99 1546.61 1714.14 1546.14 1645.14 1560.63 1631.04 1563.59 1619.32 1573.13 1613.94 1586.14 1609.17 1597.68 1610.19 1610.09 1616.79 1620.22L1767.76 1852.06C1774.35 1862.19 1785.3 1868.15 1797.81 1868.44 1811.83 1868.76 1825.33 1861.96 1833.75 1850.22 1874.9 1793.01 1899.47 1736.23 1908.94 1676.65 1910.98 1663.56 1923.26 1654.65 1936.37 1656.72 1949.45 1658.77 1958.38 1671.08 1956.29 1684.15 1945.67 1751.28 1918.3 1814.77 1872.69 1878.2 1865.93 1887.68 1857.55 1895.61 1848.15 1901.74Z"/><path fill-rule="evenodd" d="M1895.25 1623.06C1892.23 1625.03 1888.74 1626.35 1884.9 1626.79L1778.35 1638.94C1765.17 1640.43 1753.29 1630.99 1751.82 1617.83 1750.35 1604.67 1759.83 1592.81 1772.93 1591.3L1879.48 1579.15C1892.67 1577.66 1904.54 1587.1 1906.01 1600.26 1907.07 1609.56 1902.59 1618.28 1895.25 1623.06Z"/><path fill-rule="evenodd" d="M1849.77 1728.99C1842.4 1733.78 1832.65 1734.33 1824.55 1729.57 1813.12 1722.86 1809.29 1708.19 1815.97 1696.78L1870.18 1604.24C1876.91 1592.84 1891.59 1589.01 1902.98 1595.67 1914.41 1602.38 1918.24 1617.05 1911.56 1628.47L1857.35 1721C1855.44 1724.34 1852.8 1727.01 1849.77 1728.99Z"/><path fill-rule="evenodd" d="M2069.41 1509.65C2062.04 1514.45 2052.29 1515 2044.19 1510.24 2032.76 1503.53 2028.93 1488.85 2035.61 1477.44L2089.82 1384.91C2096.62 1373.5 2111.2 1369.65 2122.62 1376.33 2134.05 1383.05 2137.88 1397.72 2131.19 1409.13L2076.99 1501.66C2075.08 1505 2072.43 1507.68 2069.41 1509.65Z"/><path fill-rule="evenodd" d="M2184.68 1510.9C2181.65 1512.87 2178.16 1514.19 2174.32 1514.62L2067.78 1526.78C2054.59 1528.27 2042.72 1518.83 2041.25 1505.67 2039.78 1492.51 2049.22 1480.64 2062.36 1479.14L2168.91 1466.99C2182.09 1465.5 2193.96 1474.94 2195.43 1488.1 2196.49 1497.4 2192.02 1506.11 2184.68 1510.9Z"/></g></svg>